<svg width="17" height="19" viewBox="0 0 17 19" fill="none" xmlns="http://www.w3.org/2000/svg">
<path fill-rule="evenodd" clip-rule="evenodd" d="M11.0312 7.5156C11.0312 9.45722 9.45722 11.0312 7.5156 11.0312C5.57399 11.0312 4 9.45722 4 7.5156C4 5.57399 5.57399 4 7.5156 4C9.45722 4 11.0312 5.57399 11.0312 7.5156ZM10.501 14.4149C9.5859 14.8114 8.57642 15.0312 7.5156 15.0312C3.36485 15.0312 0 11.6664 0 7.5156C0 3.36485 3.36485 0 7.5156 0C11.6664 0 15.0312 3.36485 15.0312 7.5156C15.0312 9.13885 14.5166 10.6419 13.6416 11.8705L16.4276 15.4923C17.1079 16.3767 16.9425 17.6451 16.058 18.3255C15.1736 19.0058 13.9052 18.8403 13.2248 17.9559L10.501 14.4149Z" fill="#ACACAC"/>
</svg>
