<svg width="8" height="8" viewBox="0 0 8 8" fill="none" xmlns="http://www.w3.org/2000/svg">
<path d="M0.646447 0.646477C0.841709 0.451215 1.15829 0.451215 1.35355 0.646477L4 3.29292L6.64645 0.646477C6.84171 0.451215 7.15829 0.451215 7.35355 0.646477C7.54882 0.841739 7.54882 1.15832 7.35355 1.35358L4.70711 4.00003L7.35355 6.64648C7.54882 6.84174 7.54882 7.15832 7.35355 7.35358C7.15829 7.54885 6.84171 7.54885 6.64645 7.35358L4 4.70714L1.35355 7.35358C1.15829 7.54885 0.841709 7.54885 0.646447 7.35358C0.451184 7.15832 0.451184 6.84174 0.646447 6.64648L3.29289 4.00003L0.646447 1.35358C0.451184 1.15832 0.451184 0.841739 0.646447 0.646477Z" fill="#171717" stroke="#171717" stroke-width="0.2" stroke-linecap="round" stroke-linejoin="round"/>
</svg>
